<?xml version="1.0" encoding="UTF-8" standalone="no"?>
<!DOCTYPE svg PUBLIC "-//W3C//DTD SVG 1.1//EN"
 "http://www.w3.org/Graphics/SVG/1.1/DTD/svg11.dtd">
<!-- Generated by graphviz version 2.43.0 (0)
 -->
<!-- Title: G Pages: 1 -->
<svg width="338pt" height="139pt"
 viewBox="7.20 7.20 331.20 132.00" xmlns="http://www.w3.org/2000/svg" xmlns:xlink="http://www.w3.org/1999/xlink">
<g id="graph0" class="graph" transform="scale(1 1) rotate(0) translate(11.2 128)">
<title>G</title>
<polygon fill="white" stroke="transparent" points="-4,4 -4,-120.8 320,-120.8 320,4 -4,4"/>
<!-- start -->
<g id="node1" class="node">
<title>start</title>
</g>
<!-- 0 -->
<g id="node4" class="node">
<title>0</title>
<ellipse fill="none" stroke="black" cx="56" cy="-19.8" rx="18" ry="18"/>
<text text-anchor="middle" x="56" y="-16.1" font-family="Times,serif" font-size="14.00">0</text>
</g>
<!-- start&#45;&gt;0 -->
<g id="edge9" class="edge">
<title>start&#45;&gt;0</title>
<path fill="none" stroke="black" stroke-dasharray="5,2" d="M1.15,-19.8C2.67,-19.8 15.1,-19.8 27.63,-19.8"/>
<polygon fill="black" stroke="black" points="27.94,-23.3 37.94,-19.8 27.94,-16.3 27.94,-23.3"/>
</g>
<!-- 1 -->
<g id="node2" class="node">
<title>1</title>
<ellipse fill="none" stroke="black" cx="136" cy="-65.8" rx="18" ry="18"/>
<text text-anchor="middle" x="136" y="-62.1" font-family="Times,serif" font-size="14.00">1</text>
</g>
<!-- 1&#45;&gt;1 -->
<g id="edge1" class="edge">
<title>1&#45;&gt;1</title>
<path fill="none" stroke="black" d="M128.97,-82.47C127.41,-92.43 129.75,-101.8 136,-101.8 140,-101.8 142.4,-97.96 143.2,-92.57"/>
<polygon fill="black" stroke="black" points="146.7,-92.41 143.03,-82.47 139.7,-92.53 146.7,-92.41"/>
<text text-anchor="middle" x="136" y="-105.6" font-family="Times,serif" font-size="14.00">a</text>
</g>
<!-- 2 -->
<g id="node3" class="node">
<title>2</title>
<ellipse fill="none" stroke="black" cx="218" cy="-65.8" rx="18" ry="18"/>
<text text-anchor="middle" x="218" y="-62.1" font-family="Times,serif" font-size="14.00">2</text>
</g>
<!-- 1&#45;&gt;2 -->
<g id="edge2" class="edge">
<title>1&#45;&gt;2</title>
<path fill="none" stroke="black" d="M152.74,-72.44C158.67,-74.6 165.54,-76.73 172,-77.8 178.34,-78.86 185.07,-78.1 191.35,-76.56"/>
<polygon fill="black" stroke="black" points="192.86,-79.76 201.33,-73.4 190.74,-73.08 192.86,-79.76"/>
<text text-anchor="middle" x="177" y="-81.6" font-family="Times,serif" font-size="14.00">b</text>
</g>
<!-- 2&#45;&gt;1 -->
<g id="edge3" class="edge">
<title>2&#45;&gt;1</title>
<path fill="none" stroke="black" d="M200.39,-61.18C191.92,-59.35 181.44,-57.87 172,-58.8 169.26,-59.07 166.42,-59.46 163.59,-59.92"/>
<polygon fill="black" stroke="black" points="162.82,-56.5 153.63,-61.78 164.11,-63.38 162.82,-56.5"/>
<text text-anchor="middle" x="177" y="-62.6" font-family="Times,serif" font-size="14.00">a</text>
</g>
<!-- 2&#45;&gt;2 -->
<g id="edge4" class="edge">
<title>2&#45;&gt;2</title>
<path fill="none" stroke="black" d="M210.97,-82.47C209.41,-92.43 211.75,-101.8 218,-101.8 222,-101.8 224.4,-97.96 225.2,-92.57"/>
<polygon fill="black" stroke="black" points="228.7,-92.41 225.03,-82.47 221.7,-92.53 228.7,-92.41"/>
<text text-anchor="middle" x="218" y="-105.6" font-family="Times,serif" font-size="14.00">b</text>
</g>
<!-- 3 -->
<g id="node5" class="node">
<title>3</title>
<ellipse fill="none" stroke="black" stroke-width="2" cx="298" cy="-19.8" rx="18" ry="18"/>
<text text-anchor="middle" x="298" y="-16.1" font-family="Times,serif" font-size="14.00">3</text>
</g>
<!-- 2&#45;&gt;3 -->
<g id="edge7" class="edge">
<title>2&#45;&gt;3</title>
<path fill="none" stroke="black" d="M234.04,-56.93C245.15,-50.38 260.51,-41.32 273.27,-33.8"/>
<polygon fill="black" stroke="black" points="275.17,-36.74 282.01,-28.65 271.62,-30.71 275.17,-36.74"/>
<text text-anchor="middle" x="258" y="-47.6" font-family="Times,serif" font-size="14.00">ε</text>
</g>
<!-- 0&#45;&gt;1 -->
<g id="edge5" class="edge">
<title>0&#45;&gt;1</title>
<path fill="none" stroke="black" d="M72.04,-28.67C83.15,-35.23 98.51,-44.28 111.27,-51.81"/>
<polygon fill="black" stroke="black" points="109.62,-54.9 120.01,-56.96 113.17,-48.87 109.62,-54.9"/>
<text text-anchor="middle" x="96" y="-47.6" font-family="Times,serif" font-size="14.00">ε</text>
</g>
<!-- 0&#45;&gt;3 -->
<g id="edge6" class="edge">
<title>0&#45;&gt;3</title>
<path fill="none" stroke="black" d="M74.26,-19.8C115.51,-19.8 220.1,-19.8 269.87,-19.8"/>
<polygon fill="black" stroke="black" points="269.9,-23.3 279.9,-19.8 269.9,-16.3 269.9,-23.3"/>
<text text-anchor="middle" x="177" y="-23.6" font-family="Times,serif" font-size="14.00">ε</text>
</g>
<!-- 3&#45;&gt;0 -->
<g id="edge8" class="edge">
<title>3&#45;&gt;0</title>
<path fill="none" stroke="black" d="M280.51,-14.81C256.67,-8.16 211.16,2.41 172,-0.8 141.39,-3.31 106.66,-9.53 83.45,-14.17"/>
<polygon fill="black" stroke="black" points="82.75,-10.74 73.65,-16.17 84.15,-17.6 82.75,-10.74"/>
<text text-anchor="middle" x="177" y="-4.6" font-family="Times,serif" font-size="14.00">ε</text>
</g>
</g>
</svg>
