<?xml version="1.0" encoding="UTF-8" standalone="no"?>
<!DOCTYPE svg PUBLIC "-//W3C//DTD SVG 1.1//EN"
 "http://www.w3.org/Graphics/SVG/1.1/DTD/svg11.dtd">
<!-- Generated by graphviz version 2.43.0 (0)
 -->
<!-- Title: G Pages: 1 -->
<svg width="338pt" height="121pt"
 viewBox="7.20 7.20 331.20 114.20" xmlns="http://www.w3.org/2000/svg" xmlns:xlink="http://www.w3.org/1999/xlink">
<g id="graph0" class="graph" transform="scale(1 1) rotate(0) translate(11.2 110.2)">
<title>G</title>
<polygon fill="white" stroke="transparent" points="-4,4 -4,-103 320,-103 320,4 -4,4"/>
<!-- start -->
<g id="node1" class="node">
<title>start</title>
</g>
<!-- 0 -->
<g id="node4" class="node">
<title>0</title>
<ellipse fill="none" stroke="black" cx="56" cy="-18" rx="18" ry="18"/>
<text text-anchor="middle" x="56" y="-14.3" font-family="Times,serif" font-size="14.00">0</text>
</g>
<!-- start&#45;&gt;0 -->
<g id="edge8" class="edge">
<title>start&#45;&gt;0</title>
<path fill="none" stroke="black" stroke-dasharray="5,2" d="M1.15,-18C2.67,-18 15.1,-18 27.63,-18"/>
<polygon fill="black" stroke="black" points="27.94,-21.5 37.94,-18 27.94,-14.5 27.94,-21.5"/>
</g>
<!-- 1 -->
<g id="node2" class="node">
<title>1</title>
<ellipse fill="none" stroke="black" cx="136" cy="-48" rx="18" ry="18"/>
<text text-anchor="middle" x="136" y="-44.3" font-family="Times,serif" font-size="14.00">1</text>
</g>
<!-- 1&#45;&gt;1 -->
<g id="edge1" class="edge">
<title>1&#45;&gt;1</title>
<path fill="none" stroke="black" d="M128.97,-64.66C127.41,-74.62 129.75,-84 136,-84 140,-84 142.4,-80.15 143.2,-74.77"/>
<polygon fill="black" stroke="black" points="146.7,-74.6 143.03,-64.66 139.7,-74.72 146.7,-74.6"/>
<text text-anchor="middle" x="136" y="-87.8" font-family="Times,serif" font-size="14.00">a</text>
</g>
<!-- 2 -->
<g id="node3" class="node">
<title>2</title>
<ellipse fill="none" stroke="black" cx="218" cy="-48" rx="18" ry="18"/>
<text text-anchor="middle" x="218" y="-44.3" font-family="Times,serif" font-size="14.00">2</text>
</g>
<!-- 1&#45;&gt;2 -->
<g id="edge2" class="edge">
<title>1&#45;&gt;2</title>
<path fill="none" stroke="black" d="M152.74,-54.63C158.67,-56.8 165.54,-58.92 172,-60 178.34,-61.06 185.07,-60.3 191.35,-58.76"/>
<polygon fill="black" stroke="black" points="192.86,-61.95 201.33,-55.6 190.74,-55.28 192.86,-61.95"/>
<text text-anchor="middle" x="177" y="-63.8" font-family="Times,serif" font-size="14.00">b</text>
</g>
<!-- 2&#45;&gt;1 -->
<g id="edge3" class="edge">
<title>2&#45;&gt;1</title>
<path fill="none" stroke="black" d="M200.39,-43.38C191.92,-41.54 181.44,-40.07 172,-41 169.26,-41.27 166.42,-41.66 163.59,-42.11"/>
<polygon fill="black" stroke="black" points="162.82,-38.7 153.63,-43.98 164.11,-45.58 162.82,-38.7"/>
<text text-anchor="middle" x="177" y="-44.8" font-family="Times,serif" font-size="14.00">a</text>
</g>
<!-- 2&#45;&gt;2 -->
<g id="edge4" class="edge">
<title>2&#45;&gt;2</title>
<path fill="none" stroke="black" d="M210.97,-64.66C209.41,-74.62 211.75,-84 218,-84 222,-84 224.4,-80.15 225.2,-74.77"/>
<polygon fill="black" stroke="black" points="228.7,-74.6 225.03,-64.66 221.7,-74.72 228.7,-74.6"/>
<text text-anchor="middle" x="218" y="-87.8" font-family="Times,serif" font-size="14.00">b</text>
</g>
<!-- 3 -->
<g id="node5" class="node">
<title>3</title>
<ellipse fill="none" stroke="black" stroke-width="2" cx="298" cy="-18" rx="18" ry="18"/>
<text text-anchor="middle" x="298" y="-14.3" font-family="Times,serif" font-size="14.00">3</text>
</g>
<!-- 2&#45;&gt;3 -->
<g id="edge6" class="edge">
<title>2&#45;&gt;3</title>
<path fill="none" stroke="black" d="M235.16,-41.78C245.62,-37.76 259.46,-32.44 271.4,-27.85"/>
<polygon fill="black" stroke="black" points="272.78,-31.06 280.86,-24.21 270.27,-24.53 272.78,-31.06"/>
<text text-anchor="middle" x="258" y="-36.8" font-family="Times,serif" font-size="14.00">ε</text>
</g>
<!-- 0&#45;&gt;1 -->
<g id="edge5" class="edge">
<title>0&#45;&gt;1</title>
<path fill="none" stroke="black" d="M73.16,-24.22C83.62,-28.24 97.46,-33.56 109.4,-38.15"/>
<polygon fill="black" stroke="black" points="108.27,-41.47 118.86,-41.79 110.78,-34.94 108.27,-41.47"/>
<text text-anchor="middle" x="96" y="-36.8" font-family="Times,serif" font-size="14.00">ε</text>
</g>
<!-- 3&#45;&gt;0 -->
<g id="edge7" class="edge">
<title>3&#45;&gt;0</title>
<path fill="none" stroke="black" d="M279.9,-18C238.8,-18 134.23,-18 84.32,-18"/>
<polygon fill="black" stroke="black" points="84.26,-14.5 74.26,-18 84.26,-21.5 84.26,-14.5"/>
<text text-anchor="middle" x="177" y="-21.8" font-family="Times,serif" font-size="14.00">ε</text>
</g>
</g>
</svg>
