<?xml version="1.0" encoding="UTF-8" standalone="no"?>
<!DOCTYPE svg PUBLIC "-//W3C//DTD SVG 1.1//EN"
 "http://www.w3.org/Graphics/SVG/1.1/DTD/svg11.dtd">
<!-- Generated by graphviz version 2.43.0 (0)
 -->
<!-- Title: G Pages: 1 -->
<svg width="420pt" height="94pt"
 viewBox="7.20 7.20 413.20 86.58" xmlns="http://www.w3.org/2000/svg" xmlns:xlink="http://www.w3.org/1999/xlink">
<g id="graph0" class="graph" transform="scale(1 1) rotate(0) translate(11.2 82.58)">
<title>G</title>
<polygon fill="white" stroke="transparent" points="-4,4 -4,-75.38 402,-75.38 402,4 -4,4"/>
<!-- start -->
<g id="node1" class="node">
<title>start</title>
</g>
<!-- 0 -->
<g id="node2" class="node">
<title>0</title>
<ellipse fill="none" stroke="black" cx="56" cy="-20.38" rx="18" ry="18"/>
<text text-anchor="middle" x="56" y="-16.68" font-family="Times,serif" font-size="14.00">0</text>
</g>
<!-- start&#45;&gt;0 -->
<g id="edge11" class="edge">
<title>start&#45;&gt;0</title>
<path fill="none" stroke="black" stroke-dasharray="5,2" d="M1.15,-20.38C2.67,-20.38 15.1,-20.38 27.63,-20.38"/>
<polygon fill="black" stroke="black" points="27.94,-23.88 37.94,-20.38 27.94,-16.88 27.94,-23.88"/>
</g>
<!-- 0&#45;&gt;0 -->
<g id="edge1" class="edge">
<title>0&#45;&gt;0</title>
<path fill="none" stroke="black" d="M49.62,-37.41C48.32,-47.24 50.45,-56.38 56,-56.38 59.47,-56.38 61.6,-52.81 62.4,-47.73"/>
<polygon fill="black" stroke="black" points="65.9,-47.41 62.38,-37.41 58.9,-47.42 65.9,-47.41"/>
<text text-anchor="middle" x="56" y="-60.18" font-family="Times,serif" font-size="14.00">a</text>
</g>
<!-- 1 -->
<g id="node3" class="node">
<title>1</title>
<ellipse fill="none" stroke="black" cx="138" cy="-20.38" rx="18" ry="18"/>
<text text-anchor="middle" x="138" y="-16.68" font-family="Times,serif" font-size="14.00">1</text>
</g>
<!-- 0&#45;&gt;1 -->
<g id="edge2" class="edge">
<title>0&#45;&gt;1</title>
<path fill="none" stroke="black" d="M74.36,-20.38C84.7,-20.38 98.06,-20.38 109.78,-20.38"/>
<polygon fill="black" stroke="black" points="109.95,-23.88 119.95,-20.38 109.95,-16.88 109.95,-23.88"/>
<text text-anchor="middle" x="97" y="-24.18" font-family="Times,serif" font-size="14.00">b</text>
</g>
<!-- 1&#45;&gt;0 -->
<g id="edge3" class="edge">
<title>1&#45;&gt;0</title>
<path fill="none" stroke="black" d="M122.69,-10.51C116.6,-6.88 109.24,-3.22 102,-1.38 94.54,0.52 86.72,-1.32 79.72,-4.48"/>
<polygon fill="black" stroke="black" points="77.88,-1.5 70.81,-9.38 81.26,-7.63 77.88,-1.5"/>
<text text-anchor="middle" x="97" y="-5.18" font-family="Times,serif" font-size="14.00">a</text>
</g>
<!-- 1&#45;&gt;1 -->
<g id="edge4" class="edge">
<title>1&#45;&gt;1</title>
<path fill="none" stroke="black" d="M130.97,-37.04C129.41,-47 131.75,-56.38 138,-56.38 142,-56.38 144.4,-52.53 145.2,-47.15"/>
<polygon fill="black" stroke="black" points="148.7,-46.98 145.03,-37.04 141.7,-47.1 148.7,-46.98"/>
<text text-anchor="middle" x="138" y="-60.18" font-family="Times,serif" font-size="14.00">b</text>
</g>
<!-- 2 -->
<g id="node4" class="node">
<title>2</title>
<ellipse fill="none" stroke="black" cx="218" cy="-20.38" rx="18" ry="18"/>
<text text-anchor="middle" x="218" y="-16.68" font-family="Times,serif" font-size="14.00">2</text>
</g>
<!-- 1&#45;&gt;2 -->
<g id="edge9" class="edge">
<title>1&#45;&gt;2</title>
<path fill="none" stroke="black" d="M156.31,-20.38C166.11,-20.38 178.58,-20.38 189.67,-20.38"/>
<polygon fill="black" stroke="black" points="189.74,-23.88 199.74,-20.38 189.74,-16.88 189.74,-23.88"/>
<text text-anchor="middle" x="178" y="-24.18" font-family="Times,serif" font-size="14.00">ε</text>
</g>
<!-- 2&#45;&gt;2 -->
<g id="edge5" class="edge">
<title>2&#45;&gt;2</title>
<path fill="none" stroke="black" d="M210.97,-37.04C209.41,-47 211.75,-56.38 218,-56.38 222,-56.38 224.4,-52.53 225.2,-47.15"/>
<polygon fill="black" stroke="black" points="228.7,-46.98 225.03,-37.04 221.7,-47.1 228.7,-46.98"/>
<text text-anchor="middle" x="218" y="-60.18" font-family="Times,serif" font-size="14.00">a</text>
</g>
<!-- 3 -->
<g id="node5" class="node">
<title>3</title>
<ellipse fill="none" stroke="black" cx="300" cy="-20.38" rx="18" ry="18"/>
<text text-anchor="middle" x="300" y="-16.68" font-family="Times,serif" font-size="14.00">3</text>
</g>
<!-- 2&#45;&gt;3 -->
<g id="edge6" class="edge">
<title>2&#45;&gt;3</title>
<path fill="none" stroke="black" d="M236.36,-20.38C246.7,-20.38 260.06,-20.38 271.78,-20.38"/>
<polygon fill="black" stroke="black" points="271.95,-23.88 281.95,-20.38 271.95,-16.88 271.95,-23.88"/>
<text text-anchor="middle" x="259" y="-24.18" font-family="Times,serif" font-size="14.00">b</text>
</g>
<!-- 3&#45;&gt;2 -->
<g id="edge7" class="edge">
<title>3&#45;&gt;2</title>
<path fill="none" stroke="black" d="M285.19,-9.38C276.47,-3.76 264.85,1.38 254,-1.38 250.04,-2.38 246.05,-3.94 242.24,-5.73"/>
<polygon fill="black" stroke="black" points="240.48,-2.71 233.31,-10.51 243.78,-8.88 240.48,-2.71"/>
<text text-anchor="middle" x="259" y="-5.18" font-family="Times,serif" font-size="14.00">a</text>
</g>
<!-- 3&#45;&gt;3 -->
<g id="edge8" class="edge">
<title>3&#45;&gt;3</title>
<path fill="none" stroke="black" d="M292.97,-37.04C291.41,-47 293.75,-56.38 300,-56.38 304,-56.38 306.4,-52.53 307.2,-47.15"/>
<polygon fill="black" stroke="black" points="310.7,-46.98 307.03,-37.04 303.7,-47.1 310.7,-46.98"/>
<text text-anchor="middle" x="300" y="-60.18" font-family="Times,serif" font-size="14.00">b</text>
</g>
<!-- 4 -->
<g id="node6" class="node">
<title>4</title>
<ellipse fill="none" stroke="black" stroke-width="2" cx="380" cy="-20.38" rx="18" ry="18"/>
<text text-anchor="middle" x="380" y="-16.68" font-family="Times,serif" font-size="14.00">4</text>
</g>
<!-- 3&#45;&gt;4 -->
<g id="edge10" class="edge">
<title>3&#45;&gt;4</title>
<path fill="none" stroke="black" d="M318.31,-20.38C328.11,-20.38 340.58,-20.38 351.67,-20.38"/>
<polygon fill="black" stroke="black" points="351.74,-23.88 361.74,-20.38 351.74,-16.88 351.74,-23.88"/>
<text text-anchor="middle" x="340" y="-24.18" font-family="Times,serif" font-size="14.00">ε</text>
</g>
</g>
</svg>
