<?xml version="1.0" encoding="UTF-8" standalone="no"?>
<!DOCTYPE svg PUBLIC "-//W3C//DTD SVG 1.1//EN"
 "http://www.w3.org/Graphics/SVG/1.1/DTD/svg11.dtd">
<!-- Generated by graphviz version 2.43.0 (0)
 -->
<!-- Title: G Pages: 1 -->
<svg width="338pt" height="181pt"
 viewBox="7.20 7.20 331.20 173.58" xmlns="http://www.w3.org/2000/svg" xmlns:xlink="http://www.w3.org/1999/xlink">
<g id="graph0" class="graph" transform="scale(1 1) rotate(0) translate(11.2 169.58)">
<title>G</title>
<polygon fill="white" stroke="transparent" points="-4,4 -4,-162.38 320,-162.38 320,4 -4,4"/>
<!-- start -->
<g id="node1" class="node">
<title>start</title>
</g>
<!-- 0 -->
<g id="node6" class="node">
<title>0</title>
<ellipse fill="none" stroke="black" cx="56" cy="-63.38" rx="18" ry="18"/>
<text text-anchor="middle" x="56" y="-59.68" font-family="Times,serif" font-size="14.00">0</text>
</g>
<!-- start&#45;&gt;0 -->
<g id="edge13" class="edge">
<title>start&#45;&gt;0</title>
<path fill="none" stroke="black" stroke-dasharray="5,2" d="M1.15,-63.38C2.67,-63.38 15.1,-63.38 27.63,-63.38"/>
<polygon fill="black" stroke="black" points="27.94,-66.88 37.94,-63.38 27.94,-59.88 27.94,-66.88"/>
</g>
<!-- 1 -->
<g id="node2" class="node">
<title>1</title>
<ellipse fill="none" stroke="black" cx="136" cy="-107.38" rx="18" ry="18"/>
<text text-anchor="middle" x="136" y="-103.68" font-family="Times,serif" font-size="14.00">1</text>
</g>
<!-- 1&#45;&gt;1 -->
<g id="edge1" class="edge">
<title>1&#45;&gt;1</title>
<path fill="none" stroke="black" d="M128.97,-124.04C127.41,-134 129.75,-143.38 136,-143.38 140,-143.38 142.4,-139.53 143.2,-134.15"/>
<polygon fill="black" stroke="black" points="146.7,-133.98 143.03,-124.04 139.7,-134.1 146.7,-133.98"/>
<text text-anchor="middle" x="136" y="-147.18" font-family="Times,serif" font-size="14.00">a</text>
</g>
<!-- 2 -->
<g id="node3" class="node">
<title>2</title>
<ellipse fill="none" stroke="black" cx="218" cy="-107.38" rx="18" ry="18"/>
<text text-anchor="middle" x="218" y="-103.68" font-family="Times,serif" font-size="14.00">2</text>
</g>
<!-- 1&#45;&gt;2 -->
<g id="edge2" class="edge">
<title>1&#45;&gt;2</title>
<path fill="none" stroke="black" d="M154.36,-107.38C164.7,-107.38 178.06,-107.38 189.78,-107.38"/>
<polygon fill="black" stroke="black" points="189.95,-110.88 199.95,-107.38 189.95,-103.88 189.95,-110.88"/>
<text text-anchor="middle" x="177" y="-111.18" font-family="Times,serif" font-size="14.00">b</text>
</g>
<!-- 2&#45;&gt;1 -->
<g id="edge3" class="edge">
<title>2&#45;&gt;1</title>
<path fill="none" stroke="black" d="M203.19,-96.38C194.47,-90.76 182.85,-85.62 172,-88.38 168.04,-89.38 164.05,-90.94 160.24,-92.73"/>
<polygon fill="black" stroke="black" points="158.48,-89.71 151.31,-97.51 161.78,-95.88 158.48,-89.71"/>
<text text-anchor="middle" x="177" y="-92.18" font-family="Times,serif" font-size="14.00">a</text>
</g>
<!-- 2&#45;&gt;2 -->
<g id="edge4" class="edge">
<title>2&#45;&gt;2</title>
<path fill="none" stroke="black" d="M210.97,-124.04C209.41,-134 211.75,-143.38 218,-143.38 222,-143.38 224.4,-139.53 225.2,-134.15"/>
<polygon fill="black" stroke="black" points="228.7,-133.98 225.03,-124.04 221.7,-134.1 228.7,-133.98"/>
<text text-anchor="middle" x="218" y="-147.18" font-family="Times,serif" font-size="14.00">b</text>
</g>
<!-- 5 -->
<g id="node7" class="node">
<title>5</title>
<ellipse fill="none" stroke="black" stroke-width="2" cx="298" cy="-63.38" rx="18" ry="18"/>
<text text-anchor="middle" x="298" y="-59.68" font-family="Times,serif" font-size="14.00">5</text>
</g>
<!-- 2&#45;&gt;5 -->
<g id="edge11" class="edge">
<title>2&#45;&gt;5</title>
<path fill="none" stroke="black" d="M234.04,-98.89C245.15,-92.62 260.51,-83.96 273.27,-76.76"/>
<polygon fill="black" stroke="black" points="275.02,-79.8 282.01,-71.84 271.58,-73.7 275.02,-79.8"/>
<text text-anchor="middle" x="258" y="-90.18" font-family="Times,serif" font-size="14.00">ε</text>
</g>
<!-- 3 -->
<g id="node4" class="node">
<title>3</title>
<ellipse fill="none" stroke="black" cx="136" cy="-20.38" rx="18" ry="18"/>
<text text-anchor="middle" x="136" y="-16.68" font-family="Times,serif" font-size="14.00">3</text>
</g>
<!-- 3&#45;&gt;3 -->
<g id="edge5" class="edge">
<title>3&#45;&gt;3</title>
<path fill="none" stroke="black" d="M128.97,-37.04C127.41,-47 129.75,-56.38 136,-56.38 140,-56.38 142.4,-52.53 143.2,-47.15"/>
<polygon fill="black" stroke="black" points="146.7,-46.98 143.03,-37.04 139.7,-47.1 146.7,-46.98"/>
<text text-anchor="middle" x="136" y="-60.18" font-family="Times,serif" font-size="14.00">a</text>
</g>
<!-- 4 -->
<g id="node5" class="node">
<title>4</title>
<ellipse fill="none" stroke="black" cx="218" cy="-20.38" rx="18" ry="18"/>
<text text-anchor="middle" x="218" y="-16.68" font-family="Times,serif" font-size="14.00">4</text>
</g>
<!-- 3&#45;&gt;4 -->
<g id="edge6" class="edge">
<title>3&#45;&gt;4</title>
<path fill="none" stroke="black" d="M154.36,-20.38C164.7,-20.38 178.06,-20.38 189.78,-20.38"/>
<polygon fill="black" stroke="black" points="189.95,-23.88 199.95,-20.38 189.95,-16.88 189.95,-23.88"/>
<text text-anchor="middle" x="177" y="-24.18" font-family="Times,serif" font-size="14.00">b</text>
</g>
<!-- 4&#45;&gt;3 -->
<g id="edge7" class="edge">
<title>4&#45;&gt;3</title>
<path fill="none" stroke="black" d="M203.19,-9.38C194.47,-3.76 182.85,1.38 172,-1.38 168.04,-2.38 164.05,-3.94 160.24,-5.73"/>
<polygon fill="black" stroke="black" points="158.48,-2.71 151.31,-10.51 161.78,-8.88 158.48,-2.71"/>
<text text-anchor="middle" x="177" y="-5.18" font-family="Times,serif" font-size="14.00">a</text>
</g>
<!-- 4&#45;&gt;4 -->
<g id="edge8" class="edge">
<title>4&#45;&gt;4</title>
<path fill="none" stroke="black" d="M210.97,-37.04C209.41,-47 211.75,-56.38 218,-56.38 222,-56.38 224.4,-52.53 225.2,-47.15"/>
<polygon fill="black" stroke="black" points="228.7,-46.98 225.03,-37.04 221.7,-47.1 228.7,-46.98"/>
<text text-anchor="middle" x="218" y="-60.18" font-family="Times,serif" font-size="14.00">b</text>
</g>
<!-- 4&#45;&gt;5 -->
<g id="edge12" class="edge">
<title>4&#45;&gt;5</title>
<path fill="none" stroke="black" d="M234.04,-28.67C245.05,-34.74 260.21,-43.1 272.9,-50.09"/>
<polygon fill="black" stroke="black" points="271.56,-53.35 282.01,-55.11 274.94,-47.22 271.56,-53.35"/>
<text text-anchor="middle" x="258" y="-46.18" font-family="Times,serif" font-size="14.00">ε</text>
</g>
<!-- 0&#45;&gt;1 -->
<g id="edge9" class="edge">
<title>0&#45;&gt;1</title>
<path fill="none" stroke="black" d="M72.04,-71.86C83.15,-78.13 98.51,-86.79 111.27,-93.99"/>
<polygon fill="black" stroke="black" points="109.58,-97.06 120.01,-98.92 113.02,-90.96 109.58,-97.06"/>
<text text-anchor="middle" x="96" y="-90.18" font-family="Times,serif" font-size="14.00">ε</text>
</g>
<!-- 0&#45;&gt;3 -->
<g id="edge10" class="edge">
<title>0&#45;&gt;3</title>
<path fill="none" stroke="black" d="M72.04,-55.09C83.05,-49.02 98.21,-40.66 110.9,-33.67"/>
<polygon fill="black" stroke="black" points="112.94,-36.54 120.01,-28.64 109.56,-30.41 112.94,-36.54"/>
<text text-anchor="middle" x="96" y="-46.18" font-family="Times,serif" font-size="14.00">ε</text>
</g>
</g>
</svg>
